<?xml version="1.0" standalone="no"?>
<!DOCTYPE svg PUBLIC "-//W3C//DTD SVG 20010904//EN"
 "http://www.w3.org/TR/2001/REC-SVG-20010904/DTD/svg10.dtd">
<svg version="1.0" xmlns="http://www.w3.org/2000/svg"
 width="256.000000pt" height="244.000000pt" viewBox="0 0 256.000000 244.000000"
 preserveAspectRatio="xMidYMid meet">

<g transform="translate(0.000000,244.000000) scale(0.100000,-0.100000)"
fill="#000000" stroke="none">
<path d="M720 2166 c-168 -72 -323 -138 -346 -147 -31 -12 -42 -23 -46 -44 -6
-30 11 -241 21 -265 3 -8 7 49 9 128 l3 143 37 16 c135 55 435 191 527 239
196 100 163 89 -205 -70z"/>
<path d="M1541 2276 c24 -24 439 -217 582 -271 l47 -18 1 -86 c1 -47 5 -117 9
-156 7 -68 7 -69 10 -20 3 49 3 49 10 15 5 -21 7 24 6 110 l-1 145 -35 18
c-41 20 -620 267 -628 267 -3 0 -3 -2 -1 -4z"/>
<path d="M1125 2236 c-87 -17 -183 -66 -237 -120 -96 -96 -156 -269 -145 -420
16 -201 18 -276 8 -276 -6 0 -15 -9 -21 -20 -15 -28 2 -80 40 -120 22 -24 36
-30 68 -30 53 0 57 -15 37 -130 -14 -84 -14 -94 1 -126 9 -20 38 -51 63 -69
25 -19 49 -38 53 -42 4 -5 24 -27 45 -49 48 -53 88 -64 228 -64 152 0 174 8
257 91 37 38 76 69 85 69 12 0 1 -17 -35 -53 -30 -30 -52 -62 -52 -74 0 -24
-232 -258 -255 -258 -24 0 -255 236 -255 260 0 16 -78 100 -265 286 -249 247
-268 264 -316 276 -28 7 -55 16 -60 19 -5 3 -10 49 -11 102 -2 81 -2 86 -5 30
-2 -38 -8 -68 -13 -68 -6 0 -10 4 -10 10 0 5 -3 9 -7 8 -5 -1 -48 39 -97 90
-70 72 -96 92 -117 92 -34 0 -76 -36 -84 -70 -8 -32 44 -95 143 -171 100 -78
132 -111 132 -134 0 -12 5 -26 11 -32 6 -6 11 -30 11 -52 -1 -23 4 -41 10 -41
8 0 9 -67 5 -226 -6 -265 -2 -284 74 -399 165 -246 681 -515 912 -475 227 40
460 156 661 329 100 86 165 168 197 249 22 53 23 74 27 332 2 151 8 279 13
285 5 5 9 18 9 30 0 24 42 67 110 112 65 44 170 157 170 183 0 30 -53 80 -85
80 -20 0 -49 -23 -117 -90 -50 -49 -97 -91 -105 -94 -10 -4 -13 9 -13 56 0 93
-9 64 -11 -35 -2 -50 -7 -91 -13 -95 -17 -11 -80 -32 -96 -32 -8 0 -109 -93
-224 -207 -115 -115 -205 -199 -201 -188 4 11 11 32 17 47 7 19 6 44 -1 78 -6
28 -11 76 -11 105 l0 55 43 0 c47 0 71 18 101 77 21 42 20 55 -4 86 -20 25
-20 31 -9 169 17 212 4 300 -64 434 -92 181 -334 271 -592 220z m230 -6 c94
-14 202 -66 264 -128 57 -57 106 -154 126 -250 16 -75 20 -178 6 -186 -12 -8
-131 119 -131 140 0 9 -3 15 -6 11 -3 -3 -3 -24 1 -47 6 -33 21 -57 72 -111
72 -75 69 -65 48 -180 -6 -29 -2 -41 19 -66 29 -34 27 -49 -11 -100 -22 -31
-28 -33 -81 -33 -31 0 -69 -7 -84 -14 -25 -13 -28 -13 -28 0 0 9 5 24 10 34 8
15 7 18 -3 14 -28 -10 -38 -49 -33 -122 4 -58 2 -72 -10 -72 -8 0 -14 -6 -15
-12 0 -7 -4 -4 -8 7 -7 17 -8 17 -15 -8 -5 -22 -11 -27 -25 -22 -11 3 -22 1
-26 -5 -4 -6 -12 -7 -24 -1 -11 6 -33 6 -57 1 -61 -15 -74 -13 -75 13 l-2 22
-4 -23 c-4 -21 -9 -23 -48 -19 -24 3 -48 8 -54 11 -6 4 -19 2 -30 -4 -14 -7
-22 -7 -26 0 -4 6 -15 8 -26 5 -14 -5 -20 0 -25 22 -7 25 -8 25 -15 8 -7 -18
-8 -17 -8 5 -1 20 -3 22 -11 10 -12 -18 -13 -13 -11 68 0 39 -5 75 -14 93 -22
41 -37 36 -19 -6 16 -40 16 -40 -22 -20 -16 8 -55 15 -86 15 -53 0 -59 3 -82
33 -33 44 -35 68 -7 102 18 24 22 38 17 65 -20 117 -24 102 43 174 62 67 81
99 81 139 0 20 -2 19 -19 -8 -10 -16 -41 -52 -69 -79 l-51 -49 -7 27 c-3 15
-3 58 0 95 25 252 167 411 404 451 67 11 97 11 177 0z m-1187 -645 l47 -45
-24 -21 -25 -20 -50 51 c-49 49 -50 52 -32 66 28 20 32 19 84 -31z m2284 28
c20 -18 24 -33 8 -33 -5 0 -27 -19 -49 -41 -39 -41 -40 -42 -65 -25 -15 9 -26
18 -26 21 0 8 95 95 104 95 5 0 18 -7 28 -17z m-2198 -115 c21 -29 20 -35 -5
-49 -17 -9 -25 -7 -45 12 -22 21 -23 24 -7 41 21 24 39 23 57 -4z m2081 6 c15
-16 15 -19 -8 -41 -22 -22 -27 -23 -46 -12 -26 17 -26 24 -1 49 24 24 34 25
55 4z m-2040 -63 c3 -6 -3 -15 -14 -21 -24 -12 -42 7 -20 21 18 11 26 11 34 0z
m1969 3 c15 -6 23 -34 10 -34 -15 0 -44 22 -39 31 7 11 9 11 29 3z m-1929 -54
c23 -24 26 -33 17 -42 -10 -10 -19 -6 -43 19 -18 17 -28 36 -25 42 11 17 20
14 51 -19z m1911 19 c3 -6 -7 -25 -25 -42 -24 -25 -33 -29 -43 -19 -9 9 -6 18
17 42 31 33 40 36 51 19z m-1826 -66 c0 -5 -13 -16 -30 -25 -32 -18 -50 -7
-30 17 13 15 60 21 60 8z m560 -535 c0 -10 -4 -18 -8 -18 -8 0 -151 146 -404
413 -71 73 -125 137 -121 141 10 10 533 -516 533 -536z m1194 520 c5 -9 8 -20
5 -23 -8 -7 -69 27 -69 38 0 15 53 2 64 -15z m-205 -119 c-335 -353 -408 -424
-415 -405 -5 14 47 72 252 277 270 270 378 355 163 128z m-1425 12 c54 -54 97
-104 95 -110 -2 -6 -53 38 -114 99 -60 60 -103 110 -95 110 9 0 60 -44 114
-99z m1461 -11 c-61 -61 -112 -105 -114 -99 -5 15 189 209 209 209 8 0 -35
-50 -95 -110z m-1500 -20 c60 -60 107 -112 104 -114 -3 -3 -56 46 -119 109
-63 63 -110 115 -105 115 6 0 60 -49 120 -110z m1535 -5 c-63 -63 -116 -112
-119 -109 -7 6 211 224 224 224 5 0 -42 -52 -105 -115z m-1450 -127 c0 -5 -7
-8 -16 -8 -18 0 -103 88 -104 108 0 7 -23 39 -52 70 -29 31 -2 8 60 -53 62
-60 112 -113 112 -117z m1521 160 c-28 -29 -51 -60 -51 -68 0 -9 -21 -37 -47
-63 -36 -35 -52 -44 -63 -37 -12 8 7 31 94 119 61 61 112 108 114 106 3 -2
-18 -28 -47 -57z m-1171 -7 c0 -59 7 -81 26 -81 8 0 22 -9 32 -20 30 -36 112
-52 261 -52 155 -1 240 13 267 44 11 11 29 24 42 29 19 8 22 15 22 69 0 44 4
60 14 60 10 0 15 -23 21 -87 14 -173 14 -172 -30 -209 -22 -19 -44 -34 -49
-34 -5 0 -6 19 -3 42 7 51 -5 35 -29 -37 -38 -113 -78 -135 -249 -135 -178 0
-211 20 -254 153 -13 37 -24 67 -26 67 -1 0 0 -21 3 -47 l5 -47 -34 21 c-19
12 -42 37 -52 57 -18 34 -18 39 -2 112 10 41 15 91 12 110 -4 25 -2 34 9 34
10 0 14 -13 14 -49z m-460 -124 c82 -80 99 -102 89 -113 -6 -8 -18 -14 -26
-14 -7 0 -16 -7 -20 -16 -6 -16 -135 -104 -153 -104 -6 0 -10 66 -10 176 0
102 4 174 9 172 5 -1 55 -47 111 -101z m1700 -70 c0 -96 -3 -176 -6 -180 -8
-8 -131 69 -165 102 -14 14 -34 31 -45 38 -18 12 -18 13 11 35 17 12 66 57
110 100 44 43 83 78 88 78 4 0 7 -78 7 -173z m17 76 c-3 -10 -5 -2 -5 17 0 19
2 27 5 18 2 -10 2 -26 0 -35z m-1517 -21 c0 -3 -11 -18 -25 -32 l-26 -27 107
-119 c113 -124 137 -139 185 -114 15 9 24 9 32 1 8 -8 3 -19 -18 -41 -31 -32
-48 -39 -39 -15 4 9 -3 16 -20 21 -14 3 -30 12 -36 19 -23 28 -69 -2 -74 -50
-1 -10 -8 -18 -53 -69 -13 -14 -23 -28 -23 -31 0 -11 -64 -65 -69 -58 -3 3 0
8 7 10 8 3 29 39 48 80 l34 75 -32 42 -32 41 31 -28 c26 -24 34 -26 56 -18 37
14 34 33 -14 76 l-41 37 -22 -21 -23 -22 -31 59 -32 59 21 19 c15 13 19 26 15
45 -6 33 34 82 58 73 9 -3 16 -9 16 -12z m1230 -12 c14 -20 19 -37 15 -51 -5
-14 0 -28 14 -43 l21 -22 -35 -65 c-19 -35 -35 -57 -35 -49 0 8 -9 21 -20 28
-17 10 -24 7 -60 -30 -22 -23 -40 -46 -40 -50 0 -5 12 -13 27 -19 22 -8 30 -6
56 18 l31 28 -31 -40 c-30 -39 -31 -41 -16 -75 36 -85 36 -82 4 -65 -16 8 -33
27 -39 42 -13 38 -51 83 -53 63 -1 -8 -3 -25 -4 -38 -4 -39 -12 -35 -28 12
l-16 46 25 0 c15 0 24 6 24 15 0 21 -22 19 -76 -6 -29 -14 -43 -27 -40 -35 8
-21 1 -17 -35 16 -24 22 -30 33 -22 41 8 8 17 8 32 -1 49 -26 74 -11 185 114
l107 119 -26 27 c-19 20 -22 29 -13 38 18 18 24 15 48 -18z m-1101 -132 c65
-67 117 -126 115 -130 -3 -4 -20 -8 -38 -8 -29 0 -45 13 -135 110 -93 100
-101 111 -89 130 7 11 16 20 20 20 3 0 61 -55 127 -122z m1065 100 c8 -13 -11
-38 -94 -127 -91 -98 -107 -111 -136 -111 -18 0 -35 4 -38 8 -6 10 235 253
248 249 5 -2 14 -10 20 -19z m-1274 -170 c35 -67 35 -68 15 -68 -24 0 -145
-73 -145 -87 0 -7 -4 -13 -9 -13 -4 0 -6 11 -3 25 2 14 8 22 13 19 5 -3 9 4 9
15 0 13 7 21 18 21 13 0 14 2 4 9 -8 4 -13 11 -13 15 3 18 0 26 -9 26 -5 0 -7
-7 -3 -16 4 -12 0 -14 -23 -10 -16 2 -39 5 -51 5 -13 1 -23 4 -23 9 0 4 38 31
85 60 47 30 85 59 85 65 0 16 14 -5 50 -75z m1390 69 c0 -6 36 -34 80 -61 44
-27 80 -52 80 -56 0 -18 -57 -17 -97 1 -51 23 -57 23 -49 4 3 -8 1 -15 -4 -15
-18 0 -10 -29 11 -40 11 -7 18 -14 16 -17 -3 -2 -17 3 -31 12 -15 10 -42 23
-60 29 l-35 12 37 72 c35 68 52 88 52 59z m-1255 -127 c8 -13 -25 -13 -45 0
-12 8 -9 10 12 10 15 0 30 -4 33 -10z m1105 0 c-20 -13 -53 -13 -45 0 3 6 18
10 33 10 21 0 24 -2 12 -10z m282 -42 c-7 -7 -12 -8 -12 -2 0 14 12 26 19 19
2 -3 -1 -11 -7 -17z m-1464 -10 c7 -7 12 -20 12 -29 0 -25 -45 -123 -64 -138
-32 -26 -18 -48 59 -95 42 -25 87 -46 100 -46 27 0 28 4 60 152 17 76 18 78
43 72 44 -11 58 -29 43 -58 -12 -21 -10 -29 14 -70 15 -26 38 -88 50 -138 13
-50 29 -95 36 -99 31 -19 149 59 214 141 l39 49 62 -68 c38 -41 86 -80 122
-99 74 -40 82 -34 107 70 10 40 31 99 48 131 26 49 29 62 19 78 -16 25 2 56
37 62 33 6 35 2 57 -102 9 -47 21 -94 26 -103 14 -28 49 -21 123 25 56 34 71
48 73 70 2 17 -2 29 -12 33 -15 6 -66 104 -66 127 0 16 31 47 47 47 27 0 119
-62 136 -92 24 -41 46 -33 82 29 17 29 34 52 39 53 15 0 -1 -79 -28 -133 -14
-29 -62 -92 -108 -141 -177 -191 -418 -330 -667 -386 l-91 -20 -96 21 c-161
35 -300 95 -454 198 -102 68 -246 203 -294 276 -35 52 -74 170 -61 183 7 7 9
4 48 -63 29 -50 52 -56 74 -17 17 29 114 91 144 92 8 0 20 -5 27 -12z m456
-99 c63 -64 89 -94 60 -70 -29 22 -56 41 -60 41 -5 0 -32 23 -61 52 -29 28
-56 49 -59 45 -4 -4 17 -35 47 -69 l54 -63 -63 54 c-34 29 -66 51 -69 47 -4
-4 20 -34 53 -68 50 -52 53 -57 18 -30 -49 37 -51 38 -78 15 -21 -18 -21 -18
-3 4 11 13 14 23 8 27 -5 4 -20 21 -33 38 -18 26 -19 30 -5 25 9 -3 16 -3 15
1 -4 14 35 62 50 62 8 0 65 -50 126 -111z m475 76 l34 -35 -26 -28 c-31 -33
-33 -41 -10 -57 10 -7 13 -17 8 -25 -6 -10 -10 -8 -16 8 -13 33 -45 27 -103
-20 -41 -34 -36 -26 29 40 44 45 73 82 66 82 -8 0 -57 -39 -110 -87 l-96 -87
75 79 c41 44 83 86 93 94 14 10 16 16 8 24 -8 8 -27 -5 -69 -46 -32 -31 -62
-57 -67 -57 -5 0 -32 -21 -59 -47 -35 -35 -43 -40 -28 -18 31 45 207 215 223
215 8 0 29 -16 48 -35z m321 -167 c0 -6 -6 -5 -15 2 -8 7 -15 14 -15 16 0 2 7
1 15 -2 8 -4 15 -11 15 -16z m-800 -33 c13 -14 21 -25 18 -25 -2 0 -15 11 -28
25 -13 14 -21 25 -18 25 2 0 15 -11 28 -25z"/>
<path d="M1070 1741 c68 -44 101 -56 122 -48 9 3 6 7 -7 11 -11 4 -45 20 -75
36 -88 45 -111 45 -40 1z"/>
<path d="M1434 1746 c-38 -19 -78 -38 -89 -41 -27 -10 -2 -19 28 -11 27 7 156
86 141 86 -6 0 -42 -15 -80 -34z"/>
<path d="M905 1663 c-24 -14 -26 -18 -12 -21 22 -5 22 -8 -9 -45 -23 -27 -26
-38 -22 -83 3 -29 12 -64 22 -79 17 -26 21 -27 87 -23 38 2 69 1 69 -2 0 -4
-15 -14 -32 -23 -25 -12 -28 -16 -13 -16 36 -1 99 35 138 79 32 35 38 48 35
75 -3 27 1 36 18 44 13 5 28 20 34 31 11 20 10 21 -12 14 -38 -12 -66 -6 -132
31 -71 39 -122 45 -171 18z m160 -48 c58 -32 63 -38 69 -77 5 -33 3 -47 -12
-68 -11 -14 -28 -25 -38 -25 -11 -1 -45 -7 -76 -14 -68 -15 -96 -8 -109 26
-20 52 -11 98 29 147 20 25 45 46 56 46 11 0 47 -16 81 -35z"/>
<path d="M1452 1644 c-50 -28 -72 -35 -103 -32 -47 4 -52 -14 -11 -40 22 -14
26 -23 24 -49 -4 -40 49 -102 112 -132 57 -28 94 -29 49 -1 -18 11 -33 21 -33
23 0 1 30 1 68 -1 85 -5 104 11 110 96 4 51 1 62 -22 89 -31 37 -31 40 -8 45
13 3 10 8 -15 21 -51 27 -100 21 -171 -19z m128 -5 c0 -6 14 -27 30 -46 32
-36 40 -87 21 -136 -14 -35 -41 -41 -112 -23 -33 9 -65 14 -70 10 -5 -3 -20 6
-34 20 -22 22 -24 31 -19 68 7 45 9 47 87 91 51 28 97 36 97 16z"/>
<path d="M1200 1458 c-6 -24 -20 -65 -32 -91 -25 -56 -18 -80 26 -85 49 -6 56
10 53 119 -2 86 -4 99 -19 99 -12 0 -21 -13 -28 -42z m26 -124 c-5 -25 -12
-34 -26 -34 -24 0 -25 18 -3 65 14 29 19 33 26 19 5 -8 6 -31 3 -50z"/>
<path d="M1283 1403 c-2 -106 4 -123 46 -123 50 0 67 43 34 90 -9 13 -22 46
-28 74 -8 38 -16 52 -31 54 -18 2 -19 -5 -21 -95z m59 -51 c19 -31 10 -59 -16
-49 -10 4 -16 19 -16 42 0 42 10 45 32 7z"/>
<path d="M1246 1239 c16 -18 18 -18 36 -3 10 10 18 18 18 20 0 1 -16 2 -36 2
-34 0 -35 -1 -18 -19z"/>
<path d="M1078 1027 c-5 -10 -12 -15 -18 -12 -5 3 -10 0 -10 -8 0 -14 28 -32
37 -23 3 2 3 17 1 33 -2 23 -4 25 -10 10z"/>
<path d="M1157 1027 c-4 -10 -7 -30 -7 -43 0 -13 -4 -24 -9 -24 -11 0 -24 48
-16 60 4 6 1 10 -4 10 -13 0 -14 -49 -2 -68 9 -16 188 -24 257 -13 37 6 39 9
42 44 2 22 -1 37 -8 37 -6 0 -8 -5 -5 -11 9 -14 -3 -59 -15 -59 -6 0 -10 13
-10 29 0 44 -18 47 -22 4 -4 -52 -28 -56 -28 -4 0 51 -18 54 -22 4 -4 -51 -23
-52 -35 -1 l-11 43 -1 -37 c-2 -63 -40 -59 -41 5 0 15 -4 27 -10 27 -5 0 -10
-18 -10 -40 0 -69 -23 -47 -32 30 -3 21 -4 22 -11 7z"/>
<path d="M1441 1012 c-1 -27 3 -33 17 -30 9 2 18 13 18 26 l2 22 -5 -22 c-5
-22 -6 -21 -18 7 l-13 30 -1 -33z"/>
<path d="M340 1652 c0 -23 5 -42 10 -42 6 0 10 9 10 20 0 11 4 20 8 20 17 0
62 -57 63 -81 1 -22 1 -23 7 -3 5 14 14 20 27 18 18 -3 34 11 35 28 0 3 -30
16 -67 28 -38 12 -74 29 -80 38 -11 13 -13 9 -13 -26z"/>
<path d="M2197 1677 c-2 -7 -36 -22 -74 -35 -38 -12 -76 -28 -84 -34 -21 -17
-115 -142 -103 -137 5 3 30 15 55 28 l47 24 47 -27 c49 -27 67 -28 47 -3 -7 8
-9 17 -5 20 3 4 1 7 -6 7 -19 0 -3 60 22 88 25 27 37 28 38 5 0 -11 3 -13 6
-5 2 6 9 10 14 6 5 -3 9 13 9 35 0 42 -4 51 -13 28z m-107 -119 c0 -14 -19 1
-31 25 -12 22 -12 22 10 3 11 -11 21 -23 21 -28z"/>
<path d="M493 1577 c-12 -18 -34 -45 -49 -60 -14 -16 -24 -30 -21 -33 2 -3 25
5 51 18 l46 22 46 -22 46 -23 -37 53 c-60 83 -57 81 -82 45z"/>
</g>
</svg>
